<svg width="31" height="31" viewBox="0 0 31 31" fill="none" xmlns="http://www.w3.org/2000/svg">
<g id="instagram">
<path id="Vector" d="M22.2566 30H8.72326C6.67225 30 4.70525 29.1852 3.25497 27.735C1.80469 26.2847 0.989929 24.3177 0.989929 22.2667V8.73333C0.989929 6.68233 1.80469 4.71532 3.25497 3.26504C4.70525 1.81476 6.67225 1 8.72326 1H22.2566C24.3076 1 26.2746 1.81476 27.7249 3.26504C29.1752 4.71532 29.9899 6.68233 29.9899 8.73333V22.2667C29.9899 24.3177 29.1752 26.2847 27.7249 27.735C26.2746 29.1852 24.3076 30 22.2566 30Z" stroke="#0A0D63" strokeWidth="1.5" stroke-miterlimit="10"/>
<path id="Vector_2" d="M15.4899 22.2667C19.2271 22.2667 22.2566 19.2371 22.2566 15.5C22.2566 11.7629 19.2271 8.73334 15.4899 8.73334C11.7528 8.73334 8.72327 11.7629 8.72327 15.5C8.72327 19.2371 11.7528 22.2667 15.4899 22.2667Z" stroke="#0A0D63" strokeWidth="1.5" stroke-miterlimit="10"/>
<path id="Vector_3" d="M24.4899 8C25.3184 8 25.9899 7.32843 25.9899 6.5C25.9899 5.67157 25.3184 5 24.4899 5C23.6615 5 22.9899 5.67157 22.9899 6.5C22.9899 7.32843 23.6615 8 24.4899 8Z" stroke="#0A0D63" strokeWidth="1.5" stroke-miterlimit="10"/>
</g>
</svg>
