<svg width="17" height="31" viewBox="0 0 17 31" fill="none" xmlns="http://www.w3.org/2000/svg">
<g id="Vector">
<path d="M2.04167 1.29169C1.32608 1.29169 0.75 1.86777 0.75 2.58335V28.4167C0.75 29.1323 1.32608 29.7083 2.04167 29.7083H14.9583C15.6739 29.7083 16.25 29.1323 16.25 28.4167V2.58335C16.25 1.86777 15.6739 1.29169 14.9583 1.29169H2.04167ZM2.04167 1.93752H4.30208C4.31261 1.93743 4.32313 1.93785 4.33362 1.93878C4.34463 1.9399 4.35558 1.94158 4.36641 1.94382C4.37662 1.94586 4.38672 1.94838 4.39669 1.95139C4.40696 1.95467 4.41706 1.95846 4.42695 1.96274C4.43728 1.96685 4.44738 1.97148 4.45722 1.97662C4.46634 1.98207 4.47518 1.98796 4.48372 1.99428C4.49286 2.00014 4.5017 2.00645 4.51021 2.0132C4.51815 2.02039 4.52573 2.02796 4.53292 2.0359C4.54046 2.04353 4.54761 2.05153 4.55436 2.05987C4.56111 2.06838 4.56742 2.07722 4.57328 2.08636C4.57921 2.09533 4.58468 2.10459 4.58968 2.11411C4.59436 2.12357 4.59856 2.13325 4.60229 2.14312C4.60619 2.15346 4.60956 2.16398 4.61239 2.17466C4.61544 2.18504 4.61796 2.19556 4.61996 2.20619C4.62174 2.21664 4.62301 2.22716 4.62377 2.23773C4.62444 2.24528 4.62486 2.25285 4.625 2.26044V2.58335C4.625 2.94114 4.91304 3.22919 5.27083 3.22919H11.7292C12.087 3.22919 12.375 2.94114 12.375 2.58335V2.26044C12.3749 2.24991 12.3753 2.23939 12.3763 2.2289C12.3774 2.21789 12.3791 2.20694 12.3813 2.19611C12.3833 2.18547 12.3858 2.17495 12.3889 2.16457C12.3922 2.1543 12.396 2.14419 12.4003 2.1343C12.4044 2.1244 12.409 2.11472 12.4141 2.10529C12.4196 2.09617 12.4255 2.08733 12.4318 2.0788C12.4376 2.06965 12.444 2.06081 12.4507 2.05231C12.4574 2.04397 12.4646 2.03597 12.4721 2.02834C12.4802 2.0212 12.4886 2.01446 12.4974 2.00816C12.5055 2.00144 12.5139 1.99513 12.5226 1.98924C12.532 1.98328 12.5417 1.9778 12.5516 1.97284C12.561 1.96773 12.5707 1.9631 12.5806 1.95896C12.5905 1.9551 12.6006 1.95174 12.6109 1.94887C12.6213 1.94625 12.6318 1.94414 12.6424 1.94256C12.6533 1.94074 12.6642 1.93948 12.6752 1.93878C12.6828 1.93809 12.6903 1.93767 12.6979 1.93752H14.9583C15.3161 1.93752 15.6042 2.22556 15.6042 2.58335V28.4167C15.6042 28.7745 15.3161 29.0625 14.9583 29.0625H2.04167C1.68387 29.0625 1.39583 28.7745 1.39583 28.4167V2.58335C1.39583 2.22556 1.68387 1.93752 2.04167 1.93752Z" fill="#0A0D63"/>
<path d="M5.59375 26.8542H11.4062C11.5851 26.8542 11.7292 26.9982 11.7292 27.1771C11.7292 27.356 11.5851 27.5 11.4062 27.5H5.59375C5.41485 27.5 5.27083 27.356 5.27083 27.1771C5.27083 26.9982 5.41485 26.8542 5.59375 26.8542Z" fill="#0A0D63"/>
<path d="M2.04167 1.29169C1.32608 1.29169 0.75 1.86777 0.75 2.58335V28.4167C0.75 29.1323 1.32608 29.7083 2.04167 29.7083H14.9583C15.6739 29.7083 16.25 29.1323 16.25 28.4167V2.58335C16.25 1.86777 15.6739 1.29169 14.9583 1.29169H2.04167ZM2.04167 1.93752H4.30208C4.31261 1.93743 4.32313 1.93785 4.33362 1.93878C4.34463 1.9399 4.35558 1.94158 4.36641 1.94382C4.37662 1.94586 4.38672 1.94838 4.39669 1.95139C4.40696 1.95467 4.41706 1.95846 4.42695 1.96274C4.43728 1.96685 4.44738 1.97148 4.45722 1.97662C4.46634 1.98207 4.47518 1.98796 4.48372 1.99428C4.49286 2.00014 4.5017 2.00645 4.51021 2.0132C4.51815 2.02039 4.52573 2.02796 4.53292 2.0359C4.54046 2.04353 4.54761 2.05153 4.55436 2.05987C4.56111 2.06838 4.56742 2.07722 4.57328 2.08636C4.57921 2.09533 4.58468 2.10459 4.58968 2.11411C4.59436 2.12357 4.59856 2.13325 4.60229 2.14312C4.60619 2.15346 4.60956 2.16398 4.61239 2.17466C4.61544 2.18504 4.61796 2.19556 4.61996 2.20619C4.62174 2.21664 4.62301 2.22716 4.62377 2.23773C4.62444 2.24528 4.62486 2.25285 4.625 2.26044V2.58335C4.625 2.94114 4.91304 3.22919 5.27083 3.22919H11.7292C12.087 3.22919 12.375 2.94114 12.375 2.58335V2.26044C12.3749 2.24991 12.3753 2.23939 12.3763 2.2289C12.3774 2.21789 12.3791 2.20694 12.3813 2.19611C12.3833 2.18547 12.3858 2.17495 12.3889 2.16457C12.3922 2.1543 12.396 2.14419 12.4003 2.1343C12.4044 2.1244 12.409 2.11472 12.4141 2.10529C12.4196 2.09617 12.4255 2.08733 12.4318 2.0788C12.4376 2.06965 12.444 2.06081 12.4507 2.05231C12.4574 2.04397 12.4646 2.03597 12.4721 2.02834C12.4802 2.0212 12.4886 2.01446 12.4974 2.00816C12.5055 2.00144 12.5139 1.99513 12.5226 1.98924C12.532 1.98328 12.5417 1.9778 12.5516 1.97284C12.561 1.96773 12.5707 1.9631 12.5806 1.95896C12.5905 1.9551 12.6006 1.95174 12.6109 1.94887C12.6213 1.94625 12.6318 1.94414 12.6424 1.94256C12.6533 1.94074 12.6642 1.93948 12.6752 1.93878C12.6828 1.93809 12.6903 1.93767 12.6979 1.93752H14.9583C15.3161 1.93752 15.6042 2.22556 15.6042 2.58335V28.4167C15.6042 28.7745 15.3161 29.0625 14.9583 29.0625H2.04167C1.68387 29.0625 1.39583 28.7745 1.39583 28.4167V2.58335C1.39583 2.22556 1.68387 1.93752 2.04167 1.93752Z" stroke="#0A0D63" stroke-width="0.75"/>
<path d="M5.59375 26.8542H11.4062C11.5851 26.8542 11.7292 26.9982 11.7292 27.1771C11.7292 27.356 11.5851 27.5 11.4062 27.5H5.59375C5.41485 27.5 5.27083 27.356 5.27083 27.1771C5.27083 26.9982 5.41485 26.8542 5.59375 26.8542Z" stroke="#0A0D63" stroke-width="0.75"/>
</g>
</svg>
