<svg width="39" height="39" viewBox="0 0 39 39" fill="none" xmlns="http://www.w3.org/2000/svg">
<g id="youtube">
<path id="Vector" fill-rule="evenodd" clip-rule="evenodd" d="M33.2794 5.71003C29.7497 2.19103 24.8816 0 19.4948 0C14.108 0 9.23984 2.19103 5.71011 5.71003C2.18071 9.24 0 14.1189 0 19.5056C0 24.8809 2.18071 29.7606 5.71011 33.29C9.23984 36.8091 14.108 39 19.4948 39C24.8816 39 29.7497 36.809 33.2794 33.29C36.8088 29.7606 38.9899 24.8809 38.9899 19.5056C38.9899 14.1189 36.8089 9.24009 33.2794 5.71003ZM32.2002 32.2109C28.9507 35.46 24.4601 37.4784 19.4948 37.4784C14.5294 37.4784 10.0388 35.46 6.7893 32.2109C3.53013 28.9617 1.52208 24.4604 1.52208 19.5057C1.52208 14.5402 3.53013 10.0388 6.7893 6.7897C10.0388 3.54021 14.5294 1.53273 19.4948 1.53273C24.4601 1.53273 28.9507 3.54021 32.2002 6.7897C35.4598 10.0388 37.467 14.5402 37.467 19.5057C37.467 24.4604 35.4598 28.9616 32.2002 32.2109Z" fill="#0A0D63"/>
<path id="Vector_2" fill-rule="evenodd" clip-rule="evenodd" d="M28.454 13.2879C27.699 12.4677 26.8458 12.411 26.4682 12.3568C23.6833 12.1518 19.506 12.1063 19.506 12.1063H19.4837C19.4837 12.1063 15.3176 12.1518 12.5317 12.3568C12.133 12.411 11.291 12.4449 10.5356 13.2649C9.94152 13.8913 9.80469 15.3382 9.80469 15.3382C9.80469 15.3382 9.66656 17.0336 9.66656 18.6959V20.2828C9.66656 21.9668 9.80461 23.6292 9.80461 23.6292C9.80461 23.6292 9.97532 25.0648 10.5694 25.7015C11.3248 26.5326 12.3016 26.5004 12.7546 26.5866C14.3417 26.7488 19.5143 26.8026 19.5143 26.8026C19.5143 26.8026 23.6874 26.781 26.4725 26.5866C26.85 26.5327 27.7008 26.5327 28.4559 25.7015C29.0503 25.0648 29.1955 23.6292 29.1955 23.6292C29.1955 23.6292 29.3294 21.9667 29.3294 20.2828V18.6958C29.3294 17.0335 29.1943 15.3496 29.1943 15.3496C29.1943 15.3496 29.0484 13.914 28.454 13.2879ZM17.548 22.1824V16.3535L19.9302 17.6815L22.9057 19.2791L17.548 22.1824Z" fill="#0A0D63"/>
</g>
</svg>
